<?xml version="1.0" encoding="utf-8"?>
<!-- Generator: Adobe Illustrator 16.0.0, SVG Export Plug-In . SVG Version: 6.00 Build 0)  -->
<!DOCTYPE svg PUBLIC "-//W3C//DTD SVG 1.1//EN" "http://www.w3.org/Graphics/SVG/1.1/DTD/svg11.dtd">
<svg version="1.1" id="Layer_1" xmlns="http://www.w3.org/2000/svg" xmlns:xlink="http://www.w3.org/1999/xlink" x="0px" y="0px"
	 width="200px" height="200px" viewBox="0 0 200 200" enable-background="new 0 0 200 200" xml:space="preserve">
<path fill="#006699" d="M169.799,0.011H30.201C13.521,0.011,0,13.533,0,30.212V169.79c0,16.68,13.521,30.201,30.201,30.201h139.598
	c16.68,0,30.201-13.521,30.201-30.201V30.212C200,13.533,186.479,0.011,169.799,0.011z"/>
<linearGradient id="SVGID_1_" gradientUnits="userSpaceOnUse" x1="-1009.1406" y1="-347.6982" x2="-1060.8406" y2="-498.3882" gradientTransform="matrix(-0.5034 0 0 -0.5034 -457.1178 -204.387)">
	<stop  offset="0" style="stop-color:#FFFFFF"/>
	<stop  offset="1" style="stop-color:#FFFFFF;stop-opacity:0"/>
</linearGradient>
<path opacity="0.7811" fill="url(#SVGID_1_)" enable-background="new    " d="M147.16,8.561H52.84
	c-24.967,0-45.066,20.263-45.066,45.433v92.02c0.808,19.647,3.917,7.227,9.834-14.53c6.876-25.287,29.273-47.388,56.547-63.952
	c20.817-12.642,44.119-20.715,86.533-21.483C184.742,45.613,182.619,14.83,147.16,8.561L147.16,8.561z"/>
<path fill="#FFFFFF" d="M63.992,167.85V76.966H33.784v90.884H63.992z M48.892,64.55c10.534,0,17.091-6.979,17.091-15.7
	c-0.196-8.918-6.557-15.703-16.891-15.703c-10.333,0-17.09,6.785-17.09,15.703c0,8.722,6.555,15.7,16.693,15.7H48.892L48.892,64.55z
	"/>
<path fill="#FFFFFF" d="M80.712,167.85h30.208v-50.754c0-2.716,0.196-5.43,0.994-7.371c2.184-5.428,7.154-11.048,15.499-11.048
	c10.931,0,15.304,8.334,15.304,20.552v48.621h30.206v-52.112c0-27.916-14.903-40.905-34.778-40.905
	c-16.295,0-23.451,9.109-27.426,15.313h0.202V76.964H80.713C81.109,85.493,80.713,167.849,80.712,167.85L80.712,167.85z"/>
</svg>
